<svg xmlns="http://www.w3.org/2000/svg" xmlns:xlink="http://www.w3.org/1999/xlink" contentStyleType="text/css" data-diagram-type="ACTIVITY" height="1000px" preserveAspectRatio="none" style="width:441px;height:1000px;" version="1.1" viewBox="0 0 441 1000" width="441px" zoomAndPan="magnify"><?plantuml 1.2026.6?><defs/><g><ellipse cx="174.4352" cy="25" fill="#222222" rx="10" ry="10" style="stroke:#222222;stroke-width:1;"/><rect fill="#F1F1F1" height="33.9688" rx="12.5" ry="12.5" style="stroke:#181818;stroke-width:0.5;" width="223.3685" x="62.7509" y="55"/><text fill="#000000" font-family="sans-serif" font-size="12" lengthAdjust="spacing" textLength="203.3685" x="72.7509" y="76.1387">&#35831;&#27714;&#65288;&#20027;&#20307; + &#30446;&#26631;&#39033;&#30446; + &#30446;&#26631;&#25805;&#20316;&#65289;</text><polygon fill="#F1F1F1" points="96.337,108.9688,252.5333,108.9688,264.5333,120.9688,252.5333,132.9688,96.337,132.9688,84.337,120.9688,96.337,108.9688" style="stroke:#181818;stroke-width:0.5;stroke-linejoin:miter;stroke-miterlimit:10;"/><text fill="#000000" font-family="sans-serif" font-size="11" lengthAdjust="spacing" textLength="156.1963" x="96.337" y="124.7769">&#20027;&#20307;&#26159;&#20840;&#23616; admin &#25110; service?</text><text fill="#000000" font-family="sans-serif" font-size="11" lengthAdjust="spacing" textLength="10.9999" x="73.3371" y="118.3745">&#26159;</text><text fill="#000000" font-family="sans-serif" font-size="11" lengthAdjust="spacing" textLength="10.9999" x="264.5333" y="118.3745">&#21542;</text><rect fill="#F1F1F1" height="47.9375" rx="12.5" ry="12.5" style="stroke:#181818;stroke-width:0.5;" width="116.674" x="16" y="142.9688"/><text fill="#000000" font-family="sans-serif" font-size="12" lengthAdjust="spacing" textLength="96.674" x="26" y="164.1074">isPrivileged &#30701;&#36335;</text><text fill="#000000" font-family="sans-serif" font-size="12" lengthAdjust="spacing" textLength="72.0005" x="26" y="178.0762">&#36339;&#36807;&#25104;&#21592;&#26657;&#39564;</text><rect fill="#F1F1F1" height="47.9375" rx="12.5" ry="12.5" style="stroke:#181818;stroke-width:0.5;" width="157.4381" x="195.8143" y="191.3711"/><text fill="#000000" font-family="sans-serif" font-size="12" lengthAdjust="spacing" textLength="132.001" x="205.8143" y="212.5098">&#25298;&#32477;&#65306;&#22238;&#12300;&#39033;&#30446;&#19981;&#23384;&#22312;&#12301;</text><text fill="#000000" font-family="sans-serif" font-size="12" lengthAdjust="spacing" textLength="137.4381" x="205.8143" y="226.4785">&#65288;404 &#35821;&#20041;&#65292;&#19981;&#32473; 403&#65289;</text><ellipse cx="274.5333" cy="280.8398" fill="none" rx="11" ry="11" style="stroke:#222222;stroke-width:1;"/><ellipse cx="274.5333" cy="280.8398" fill="#222222" rx="6" ry="6" style="stroke:#222222;stroke-width:1;"/><polygon fill="#F1F1F1" points="238.6144,142.9688,310.4523,142.9688,322.4523,154.9688,310.4523,166.9688,238.6144,166.9688,226.6144,154.9688,238.6144,142.9688" style="stroke:#181818;stroke-width:0.5;stroke-linejoin:miter;stroke-miterlimit:10;"/><text fill="#000000" font-family="sans-serif" font-size="11" lengthAdjust="spacing" textLength="10.9999" x="278.5333" y="177.1792">&#21542;</text><text fill="#000000" font-family="sans-serif" font-size="11" lengthAdjust="spacing" textLength="71.8379" x="238.6144" y="158.7769">&#26159;&#35813;&#39033;&#30446;&#25104;&#21592;?</text><polygon fill="#F1F1F1" points="174.4352,319.8398,186.4352,331.8398,174.4352,343.8398,162.4352,331.8398,174.4352,319.8398" style="stroke:#181818;stroke-width:0.5;stroke-linejoin:miter;stroke-miterlimit:10;"/><rect fill="#F1F1F1" height="47.9375" rx="12.5" ry="12.5" style="stroke:#181818;stroke-width:0.5;" width="219.9574" x="64.4565" y="363.8398"/><text fill="#000000" font-family="sans-serif" font-size="12" lengthAdjust="spacing" textLength="132.0008" x="74.4565" y="384.9785">&#31532;&#19968;&#23618;&#8212;&#8212;&#20840;&#23616;&#35282;&#33394;&#26435;&#38480;</text><text fill="#000000" font-family="sans-serif" font-size="12" lengthAdjust="spacing" textLength="199.9574" x="74.4565" y="398.9473">admin = &#20840;&#37327; / user = &#21508;&#31867; *:read</text><rect fill="#F1F1F1" height="33.9688" rx="12.5" ry="12.5" style="stroke:#181818;stroke-width:0.5;" width="92.0005" x="128.4349" y="480.1797"/><text fill="#000000" font-family="sans-serif" font-size="12" lengthAdjust="spacing" textLength="72.0005" x="138.4349" y="501.3184">&#25298;&#32477;&#24182;&#35760;&#23457;&#35745;</text><ellipse cx="174.4352" cy="553.6641" fill="none" rx="11" ry="11" style="stroke:#222222;stroke-width:1;"/><ellipse cx="174.4352" cy="553.6641" fill="#222222" rx="6" ry="6" style="stroke:#222222;stroke-width:1;"/><polygon fill="#F1F1F1" points="127.5163,431.7773,221.354,431.7773,233.354,443.7773,221.354,455.7773,127.5163,455.7773,115.5163,443.7773,127.5163,431.7773" style="stroke:#181818;stroke-width:0.5;stroke-linejoin:miter;stroke-miterlimit:10;"/><text fill="#000000" font-family="sans-serif" font-size="11" lengthAdjust="spacing" textLength="10.9999" x="178.4352" y="465.9878">&#21542;</text><text fill="#000000" font-family="sans-serif" font-size="11" lengthAdjust="spacing" textLength="93.8378" x="127.5163" y="447.5854">&#21629;&#20013;&#25152;&#38656;&#20840;&#23616;&#26435;&#38480;?</text><rect fill="#F1F1F1" height="47.9375" rx="12.5" ry="12.5" style="stroke:#181818;stroke-width:0.5;" width="234.8164" x="57.027" y="606.6641"/><text fill="#000000" font-family="sans-serif" font-size="12" lengthAdjust="spacing" textLength="132.0008" x="67.027" y="627.8027">&#31532;&#20108;&#23618;&#8212;&#8212;&#39033;&#30446;&#35282;&#33394;&#26435;&#38480;</text><text fill="#000000" font-family="sans-serif" font-size="12" lengthAdjust="spacing" textLength="214.8164" x="67.027" y="641.7715">pm / collaborator / tester / observer</text><rect fill="#F1F1F1" height="33.9688" rx="12.5" ry="12.5" style="stroke:#181818;stroke-width:0.5;" width="92.0005" x="128.4349" y="723.0039"/><text fill="#000000" font-family="sans-serif" font-size="12" lengthAdjust="spacing" textLength="72.0005" x="138.4349" y="744.1426">&#25298;&#32477;&#24182;&#35760;&#23457;&#35745;</text><ellipse cx="174.4352" cy="796.4883" fill="none" rx="11" ry="11" style="stroke:#222222;stroke-width:1;"/><ellipse cx="174.4352" cy="796.4883" fill="#222222" rx="6" ry="6" style="stroke:#222222;stroke-width:1;"/><polygon fill="#F1F1F1" points="127.5163,674.6016,221.354,674.6016,233.354,686.6016,221.354,698.6016,127.5163,698.6016,115.5163,686.6016,127.5163,674.6016" style="stroke:#181818;stroke-width:0.5;stroke-linejoin:miter;stroke-miterlimit:10;"/><text fill="#000000" font-family="sans-serif" font-size="11" lengthAdjust="spacing" textLength="10.9999" x="178.4352" y="708.812">&#21542;</text><text fill="#000000" font-family="sans-serif" font-size="11" lengthAdjust="spacing" textLength="93.8378" x="127.5163" y="690.4097">&#21629;&#20013;&#25152;&#38656;&#39033;&#30446;&#26435;&#38480;?</text><rect fill="#F1F1F1" height="33.9688" rx="12.5" ry="12.5" style="stroke:#181818;stroke-width:0.5;" width="92.0005" x="128.4349" y="849.4883"/><text fill="#000000" font-family="sans-serif" font-size="12" lengthAdjust="spacing" textLength="72.0005" x="138.4349" y="870.627">&#25191;&#34892;&#24182;&#35760;&#23457;&#35745;</text><path d="M205.4352,893.457 L205.4352,932.2891 L185.4352,936.2891 L205.4352,940.2891 L205.4352,979.1211 A0,0 0 0 0 205.4352,979.1211 L420.7244,979.1211 A0,0 0 0 0 420.7244,979.1211 L420.7244,903.457 L410.7244,893.457 L205.4352,893.457 A0,0 0 0 0 205.4352,893.457" fill="#FEFFDD" style="stroke:#181818;stroke-width:0.5;"/><path d="M410.7244,893.457 L410.7244,903.457 L420.7244,903.457 L410.7244,893.457" fill="#FEFFDD" style="stroke:#181818;stroke-width:0.5;"/><text fill="#000000" font-family="sans-serif" font-size="13" lengthAdjust="spacing" textLength="129.2892" x="211.4352" y="910.5239">&#25991;&#26723; / &#22270;&#34920; / &#30333;&#26495;&#21478;&#26377;</text><text fill="#000000" font-family="sans-serif" font-size="13" font-weight="700" lengthAdjust="spacing" textLength="52.0001" x="340.7243" y="910.5239">&#23646;&#20027;&#35821;&#20041;</text><text fill="#000000" font-family="sans-serif" font-size="13" lengthAdjust="spacing" textLength="13" x="392.7244" y="910.5239">&#65306;</text><text fill="#000000" font-family="sans-serif" font-size="13" lengthAdjust="spacing" textLength="145.317" x="211.4352" y="925.6567">&#25913;&#33258;&#24049;&#24314;&#30340;&#35201; :update&#65292;</text><text fill="#000000" font-family="sans-serif" font-size="13" lengthAdjust="spacing" textLength="173.5958" x="211.4352" y="940.7896">&#25913;&#21035;&#20154;&#24314;&#30340;&#35201; :update:any&#12290;</text><text fill="#000000" font-family="sans-serif" font-size="13" lengthAdjust="spacing" textLength="130.0002" x="211.4352" y="955.9224">&#25163;&#20876;&#24402;&#31995;&#32479;&#20027;&#20307;&#25152;&#26377;&#65292;</text><text fill="#000000" font-family="sans-serif" font-size="13" lengthAdjust="spacing" textLength="156.0002" x="211.4352" y="971.0552">&#20110;&#26159;&#23545;&#26222;&#36890;&#29992;&#25143;&#22825;&#28982;&#21482;&#35835;&#12290;</text><ellipse cx="174.4352" cy="936.2891" fill="none" rx="11" ry="11" style="stroke:#222222;stroke-width:1;"/><ellipse cx="174.4352" cy="936.2891" fill="#222222" rx="6" ry="6" style="stroke:#222222;stroke-width:1;"/><line style="stroke:#181818;stroke-width:1;" x1="174.4352" x2="174.4352" y1="35" y2="55"/><polygon fill="#181818" points="170.4352,45,174.4352,55,178.4352,45,174.4352,49" style="stroke:#181818;stroke-width:1;stroke-linejoin:miter;stroke-miterlimit:10;"/><line style="stroke:#181818;stroke-width:1;" x1="274.5333" x2="274.5333" y1="239.3086" y2="269.8398"/><polygon fill="#181818" points="270.5333,259.8398,274.5333,269.8398,278.5333,259.8398,274.5333,263.8398" style="stroke:#181818;stroke-width:1;stroke-linejoin:miter;stroke-miterlimit:10;"/><line style="stroke:#181818;stroke-width:1;" x1="274.5333" x2="274.5333" y1="166.9688" y2="191.3711"/><polygon fill="#181818" points="270.5333,181.3711,274.5333,191.3711,278.5333,181.3711,274.5333,185.3711" style="stroke:#181818;stroke-width:1;stroke-linejoin:miter;stroke-miterlimit:10;"/><line style="stroke:#181818;stroke-width:1;" x1="322.4523" x2="363.2524" y1="154.9688" y2="154.9688"/><polygon fill="#181818" points="359.2524,239.8398,363.2524,249.8398,367.2524,239.8398,363.2524,243.8398" style="stroke:#181818;stroke-width:1;stroke-linejoin:miter;stroke-miterlimit:10;"/><line style="stroke:#181818;stroke-width:1;" x1="363.2524" x2="363.2524" y1="154.9688" y2="331.8398"/><line style="stroke:#181818;stroke-width:1;" x1="363.2524" x2="186.4352" y1="331.8398" y2="331.8398"/><polygon fill="#181818" points="196.4352,327.8398,186.4352,331.8398,196.4352,335.8398,192.4352,331.8398" style="stroke:#181818;stroke-width:1;stroke-linejoin:miter;stroke-miterlimit:10;"/><line style="stroke:#181818;stroke-width:1;" x1="84.337" x2="74.337" y1="120.9688" y2="120.9688"/><line style="stroke:#181818;stroke-width:1;" x1="74.337" x2="74.337" y1="120.9688" y2="142.9688"/><polygon fill="#181818" points="70.337,132.9688,74.337,142.9688,78.337,132.9688,74.337,136.9688" style="stroke:#181818;stroke-width:1;stroke-linejoin:miter;stroke-miterlimit:10;"/><line style="stroke:#181818;stroke-width:1;" x1="264.5333" x2="274.5333" y1="120.9688" y2="120.9688"/><line style="stroke:#181818;stroke-width:1;" x1="274.5333" x2="274.5333" y1="120.9688" y2="142.9688"/><polygon fill="#181818" points="270.5333,132.9688,274.5333,142.9688,278.5333,132.9688,274.5333,136.9688" style="stroke:#181818;stroke-width:1;stroke-linejoin:miter;stroke-miterlimit:10;"/><line style="stroke:#181818;stroke-width:1;" x1="74.337" x2="74.337" y1="190.9063" y2="331.8398"/><line style="stroke:#181818;stroke-width:1;" x1="74.337" x2="162.4352" y1="331.8398" y2="331.8398"/><polygon fill="#181818" points="152.4352,327.8398,162.4352,331.8398,152.4352,335.8398,156.4352,331.8398" style="stroke:#181818;stroke-width:1;stroke-linejoin:miter;stroke-miterlimit:10;"/><line style="stroke:#181818;stroke-width:1;" x1="174.4352" x2="174.4352" y1="88.9688" y2="108.9688"/><polygon fill="#181818" points="170.4352,98.9688,174.4352,108.9688,178.4352,98.9688,174.4352,102.9688" style="stroke:#181818;stroke-width:1;stroke-linejoin:miter;stroke-miterlimit:10;"/><line style="stroke:#181818;stroke-width:1;" x1="174.4352" x2="174.4352" y1="343.8398" y2="363.8398"/><polygon fill="#181818" points="170.4352,353.8398,174.4352,363.8398,178.4352,353.8398,174.4352,357.8398" style="stroke:#181818;stroke-width:1;stroke-linejoin:miter;stroke-miterlimit:10;"/><line style="stroke:#181818;stroke-width:1;" x1="174.4352" x2="174.4352" y1="514.1484" y2="542.6641"/><polygon fill="#181818" points="170.4352,532.6641,174.4352,542.6641,178.4352,532.6641,174.4352,536.6641" style="stroke:#181818;stroke-width:1;stroke-linejoin:miter;stroke-miterlimit:10;"/><line style="stroke:#181818;stroke-width:1;" x1="174.4352" x2="174.4352" y1="455.7773" y2="480.1797"/><polygon fill="#181818" points="170.4352,470.1797,174.4352,480.1797,178.4352,470.1797,174.4352,474.1797" style="stroke:#181818;stroke-width:1;stroke-linejoin:miter;stroke-miterlimit:10;"/><line style="stroke:#181818;stroke-width:1;" x1="233.354" x2="245.354" y1="443.7773" y2="443.7773"/><polygon fill="#181818" points="241.354,512.6641,245.354,522.6641,249.354,512.6641,245.354,516.6641" style="stroke:#181818;stroke-width:1;stroke-linejoin:miter;stroke-miterlimit:10;"/><line style="stroke:#181818;stroke-width:1;" x1="245.354" x2="245.354" y1="443.7773" y2="586.6641"/><line style="stroke:#181818;stroke-width:1;" x1="245.354" x2="174.4352" y1="586.6641" y2="586.6641"/><line style="stroke:#181818;stroke-width:1;" x1="174.4352" x2="174.4352" y1="586.6641" y2="606.6641"/><polygon fill="#181818" points="170.4352,596.6641,174.4352,606.6641,178.4352,596.6641,174.4352,600.6641" style="stroke:#181818;stroke-width:1;stroke-linejoin:miter;stroke-miterlimit:10;"/><line style="stroke:#181818;stroke-width:1;" x1="174.4352" x2="174.4352" y1="411.7773" y2="431.7773"/><polygon fill="#181818" points="170.4352,421.7773,174.4352,431.7773,178.4352,421.7773,174.4352,425.7773" style="stroke:#181818;stroke-width:1;stroke-linejoin:miter;stroke-miterlimit:10;"/><line style="stroke:#181818;stroke-width:1;" x1="174.4352" x2="174.4352" y1="756.9727" y2="785.4883"/><polygon fill="#181818" points="170.4352,775.4883,174.4352,785.4883,178.4352,775.4883,174.4352,779.4883" style="stroke:#181818;stroke-width:1;stroke-linejoin:miter;stroke-miterlimit:10;"/><line style="stroke:#181818;stroke-width:1;" x1="174.4352" x2="174.4352" y1="698.6016" y2="723.0039"/><polygon fill="#181818" points="170.4352,713.0039,174.4352,723.0039,178.4352,713.0039,174.4352,717.0039" style="stroke:#181818;stroke-width:1;stroke-linejoin:miter;stroke-miterlimit:10;"/><line style="stroke:#181818;stroke-width:1;" x1="233.354" x2="245.354" y1="686.6016" y2="686.6016"/><polygon fill="#181818" points="241.354,755.4883,245.354,765.4883,249.354,755.4883,245.354,759.4883" style="stroke:#181818;stroke-width:1;stroke-linejoin:miter;stroke-miterlimit:10;"/><line style="stroke:#181818;stroke-width:1;" x1="245.354" x2="245.354" y1="686.6016" y2="829.4883"/><line style="stroke:#181818;stroke-width:1;" x1="245.354" x2="174.4352" y1="829.4883" y2="829.4883"/><line style="stroke:#181818;stroke-width:1;" x1="174.4352" x2="174.4352" y1="829.4883" y2="849.4883"/><polygon fill="#181818" points="170.4352,839.4883,174.4352,849.4883,178.4352,839.4883,174.4352,843.4883" style="stroke:#181818;stroke-width:1;stroke-linejoin:miter;stroke-miterlimit:10;"/><line style="stroke:#181818;stroke-width:1;" x1="174.4352" x2="174.4352" y1="654.6016" y2="674.6016"/><polygon fill="#181818" points="170.4352,664.6016,174.4352,674.6016,178.4352,664.6016,174.4352,668.6016" style="stroke:#181818;stroke-width:1;stroke-linejoin:miter;stroke-miterlimit:10;"/><line style="stroke:#181818;stroke-width:1;" x1="174.4352" x2="174.4352" y1="883.457" y2="925.2891"/><polygon fill="#181818" points="170.4352,915.2891,174.4352,925.2891,178.4352,915.2891,174.4352,919.2891" style="stroke:#181818;stroke-width:1;stroke-linejoin:miter;stroke-miterlimit:10;"/><?plantuml-src dLBBJjj05DtxA-uIKbKWbLLGrKMbBgj-09i1Ju95Cexi2LLtBgLDB4893o42uM6rXPIIk2aIUJWf_r8yuyaglz1n9egWx2gDHdTqpprpphtNNZ583bae2ujeQILjcNcYlpGpfWNKGiIMAKoePazGzZBIpRS6IKCAPMnyBwFZ5Cfdw2kJqDSeYy6MvKzjR1afJRCfigYM57wBDzU6lMBO3iB-BZo1wAZ1pme3hoE3oPFlReRzwh3dpckQaO8fXUO7FljOOqq7a9ur2F3YFaZwLMC9lvW6kem9J4dCj0QGDEmtbh5gP70Qwn2TraNBNo2YTIrk2xnOPji7_CmRN9RcDImzm1GhdyTbyL-IGVZVb205dP2FKPAUR-n4mV6mTyYEJkwSaaA7xKrMFs3LsfspkK2aoRdPEH1-FUoumrv9PgEW0dEppqQ-OXgRcZaPOABB5gbRIqPNLs7ROSsrFywUFCgnkDWHxYz-_65GAIyGPVyvoDoWi0Kpa9TjYD_bzQWPG29fOQJFZph7jljXkyvTPr1r59KY-TVJs17ht8Z6JzRmHCEBDOuKtbVMBKsKATCFbUMoKisIcScWHTD2L2xH351iKnm7vc8yBMmzLZRkzdyhu-w5y4eF8IE0HaoAmJBIorJMyFq2zxv89Upej_1gCeWgVNvyoxREUTLD95ZpH6wQcbWY8QSRr-nrHE6IjPeiw4Q7w-ByFIJpEHrHB6Ugygpu8-ns7-MJYBoxSzPYZBl1FfLOVoUw3gBWTBpDhYC_LIHXztEyt7w7Lne3vp3Qg_5YYttz7gtViArBuGSnZpGBiPs_?></g></svg>